<?xml version="1.0" standalone="no"?>
<svg height="490.000000pt" preserveAspectRatio="xMidYMid meet" version="1.0"
    viewBox="0 0 700.000000 490.000000" width="700.000000pt" xmlns="http://www.w3.org/2000/svg">

    <g fill="#000000" stroke="none"
        transform="translate(0.000000,490.000000) scale(0.100000,-0.100000)">
        <path d="M2535 4468 l0 -203 29 -58 c37 -72 88 -120 119 -112 15 4 18 3 9 -3
-14 -9 38 -35 123 -62 22 -7 82 -30 134 -51 51 -22 96 -39 98 -39 3 0 2 8 -1
17 -4 9 -11 82 -16 162 -13 196 -35 262 -124 366 -31 36 -35 38 -52 25 -17
-14 -18 -13 -6 2 11 14 9 19 -16 37 -16 11 -32 18 -36 14 -3 -3 -6 -2 -6 4 0
15 -50 34 -74 28 -15 -5 -17 -4 -7 3 9 7 -10 17 -70 37 -46 15 -88 30 -94 32
-6 2 -10 -69 -10 -199z m60 162 c3 -5 1 -10 -4 -10 -6 0 -11 5 -11 10 0 6 2
10 4 10 3 0 8 -4 11 -10z m-32 -25 c-3 -9 -8 -14 -10 -11 -3 3 -2 9 2 15 9 16
15 13 8 -4z m107 10 c0 -2 -10 -10 -22 -16 -21 -11 -22 -11 -9 4 13 16 31 23
31 12z m-53 -11 c-3 -3 -12 -4 -19 -1 -8 3 -5 6 6 6 11 1 17 -2 13 -5z m158
-54 c3 -5 1 -10 -4 -10 -6 0 -11 5 -11 10 0 6 2 10 4 10 3 0 8 -4 11 -10z m65
-26 c0 -2 -9 0 -20 6 -11 6 -20 13 -20 16 0 2 9 0 20 -6 11 -6 20 -13 20 -16z
m-20 -11 c0 -3 -6 -3 -14 0 -7 3 -20 0 -27 -6 -11 -10 -11 -9 0 5 11 15 41 15
41 1z m-263 -35 c-3 -8 -6 -5 -6 6 -1 11 2 17 5 13 3 -3 4 -12 1 -19z m359
-20 c3 -4 -1 -5 -10 -4 -8 1 -18 5 -22 8 -3 4 1 5 10 4 8 -1 18 -5 22 -8z m14
-33 c0 -2 -9 -3 -19 -2 -11 0 -18 5 -15 9 4 6 34 0 34 -7z m37 -127 c-3 -8 -6
-5 -6 6 -1 11 2 17 5 13 3 -3 4 -12 1 -19z m25 -46 c-8 -24 -9 -23 -9 17 0 32
2 39 9 27 6 -10 6 -27 0 -44z m-366 -67 c-2 -7 -1 -15 4 -17 4 -2 2 -9 -6 -16
-12 -11 -13 -8 -9 22 4 19 1 37 -5 41 -5 3 -10 11 -10 18 0 6 7 1 16 -11 9
-13 13 -29 10 -37z m-36 35 c0 -5 -2 -10 -4 -10 -3 0 -8 5 -11 10 -3 6 -1 10
4 10 6 0 11 -4 11 -10z m377 -62 c-3 -7 -5 -2 -5 12 0 14 2 19 5 13 2 -7 2
-19 0 -25z m44 -61 c-10 -9 -11 -8 -5 6 3 10 9 15 12 12 3 -3 0 -11 -7 -18z
m-185 -25 c-23 -3 -26 -6 -15 -14 12 -8 12 -9 0 -6 -8 2 -15 11 -16 19 -2 12
5 14 29 10 l31 -6 -29 -3z m142 -43 c-4 -28 -1 -33 24 -43 15 -6 28 -14 28
-19 0 -4 -17 0 -37 11 -21 11 -49 24 -63 30 -25 10 -25 10 5 9 24 -2 31 2 33
21 2 12 6 22 9 22 3 0 3 -14 1 -31z m56 -4 c3 -8 1 -15 -4 -15 -6 0 -10 7 -10
15 0 8 2 15 4 15 2 0 6 -7 10 -15z" />
        <path d="M2409 4076 c-34 -12 -89 -48 -136 -90 -19 -16 -21 -22 -10 -35 11
-14 10 -14 -6 -2 -14 11 -21 11 -29 3 -9 -9 -8 -12 4 -12 9 0 39 -16 68 -35
l51 -35 25 27 c13 14 24 21 24 14 0 -6 -6 -14 -14 -17 -29 -11 -25 -33 9 -54
39 -24 94 -33 148 -24 51 8 137 76 132 104 -2 11 0 18 6 15 5 -4 6 -11 3 -17
-4 -6 -1 -8 7 -6 8 3 13 11 11 17 -1 7 2 10 8 6 5 -3 25 6 44 21 l35 28 -56
27 c-31 15 -63 25 -72 22 -12 -4 -13 -3 -3 4 9 7 -3 16 -43 31 -64 25 -150 28
-206 8z m179 -17 c-10 -5 -26 -5 -40 0 -20 7 -17 9 16 9 29 0 36 -2 24 -9z
m-150 -16 c-10 -2 -26 -2 -35 0 -10 3 -2 5 17 5 19 0 27 -2 18 -5z m52 -13 c8
-5 11 -10 5 -10 -5 0 -17 5 -25 10 -8 5 -10 10 -5 10 6 0 17 -5 25 -10z m97 4
c-3 -3 -12 -4 -19 -1 -8 3 -5 6 6 6 11 1 17 -2 13 -5z m-140 -10 c-3 -3 -12
-4 -19 -1 -8 3 -5 6 6 6 11 1 17 -2 13 -5z m-142 -34 c-10 -11 -23 -20 -28
-20 -6 0 0 9 13 20 13 11 25 20 28 20 3 0 -3 -9 -13 -20z m450 -8 c-3 -3 -11
0 -18 7 -9 10 -8 11 6 5 10 -3 15 -9 12 -12z m-5 -17 c0 -2 -6 -5 -13 -8 -8
-3 -14 1 -14 8 0 7 6 11 14 8 7 -3 13 -6 13 -8z m-436 -17 c-3 -4 -11 -5 -19
-1 -21 7 -19 12 4 10 11 0 18 -5 15 -9z m13 -22 c0 -8 -6 -12 -15 -9 -11 5
-11 7 0 14 7 5 13 9 14 9 0 0 1 -6 1 -14z m68 -56 c-3 -6 4 -14 17 -19 15 -7
17 -10 7 -10 -19 -1 -42 23 -32 32 10 10 15 8 8 -3z m105 -28 c-8 -3 -24 -9
-35 -14 -18 -8 -19 -8 -3 5 10 8 15 17 12 20 -3 3 4 3 17 0 16 -5 19 -8 9 -11z
m65 -2 c-3 -5 -16 -10 -28 -9 -20 1 -20 2 3 9 14 4 26 8 28 9 2 1 0 -3 -3 -9z" />
        <path d="M3149 3806 c150 -197 244 -437 286 -727 19 -137 19 -420 0 -558 -27
-186 -87 -395 -186 -644 -22 -56 -46 -112 -53 -125 -13 -24 -13 -23 -20 25
-14 108 -124 294 -265 448 -254 277 -360 520 -387 885 l-7 95 -19 -43 c-38
-85 -50 -177 -45 -322 3 -74 13 -162 22 -195 21 -80 94 -238 162 -352 63 -106
79 -174 47 -191 -11 -5 -62 -10 -114 -10 -117 0 -228 -30 -375 -102 -90 -43
-178 -111 -163 -125 3 -3 37 8 77 25 150 64 247 90 336 90 160 0 282 -36 354
-103 83 -79 184 -271 228 -434 25 -91 27 -113 27 -303 0 -257 -27 -449 -99
-710 -9 -30 -18 -87 -22 -127 l-6 -72 144 -3 c293 -7 685 -7 722 0 l37 7 -29
60 c-15 33 -51 97 -79 143 -59 97 -100 206 -149 392 -91 353 -31 607 181 766
83 63 129 85 287 137 147 49 290 117 464 220 218 129 230 140 176 152 -17 4
-31 8 -31 11 0 2 23 43 50 91 63 110 91 182 96 253 l5 55 -43 -86 c-24 -47
-63 -111 -87 -143 -51 -66 -188 -192 -282 -258 -233 -166 -550 -243 -772 -187
-55 13 -57 22 -31 128 36 144 141 302 232 351 45 24 54 25 219 25 l173 -1 -63
24 c-34 13 -99 33 -143 45 l-82 22 119 135 c226 256 303 388 323 555 l7 50
-39 -80 c-85 -174 -195 -277 -415 -390 -73 -38 -149 -79 -171 -92 -54 -34
-126 -103 -126 -120 0 -8 -5 -11 -10 -8 -7 4 -9 85 -7 233 5 265 12 300 92
471 55 119 99 258 110 346 l6 50 -20 -52 c-34 -91 -74 -156 -137 -220 -34 -35
-66 -63 -72 -63 -6 0 -16 26 -22 58 -36 177 -165 359 -340 483 -126 89 -127
90 -71 15z" />
        <path d="M2983 3732 l-61 -3 29 -71 c16 -39 34 -77 40 -85 14 -16 29 -17 29
-2 0 5 -5 7 -11 3 -8 -5 -8 -1 0 13 6 11 7 24 3 28 -4 5 -2 5 5 1 7 -4 10 -13
7 -20 -3 -8 0 -17 6 -21 9 -6 9 -9 0 -15 -7 -4 -10 -12 -6 -18 11 -18 65 -24
156 -17 l89 7 -16 24 c-8 13 -19 21 -24 18 -5 -3 -6 1 -4 8 8 19 -52 106 -84
122 -43 22 -92 31 -158 28z m94 -18 c-3 -3 -12 -4 -19 -1 -8 3 -5 6 6 6 11 1
17 -2 13 -5z m88 -69 c1 -14 0 -25 0 -25 -1 0 -12 12 -26 28 -13 15 -17 21 -9
15 18 -17 38 -17 22 -1 -7 7 -12 16 -12 22 0 22 25 -17 25 -39z m29 -11 c3 -8
2 -12 -4 -9 -6 3 -10 10 -10 16 0 14 7 11 14 -7z" />
        <path d="M2108 3517 c-1 -29 -2 -64 -2 -79 -1 -14 -4 -24 -8 -21 -5 2 -8 -5
-8 -16 0 -10 3 -21 8 -24 4 -2 1 -2 -5 -1 -19 5 -17 -72 3 -130 18 -52 57 -88
144 -134 30 -15 77 -40 103 -56 27 -15 50 -26 52 -24 12 12 16 238 5 278 -16
62 -38 94 -54 81 -9 -8 -13 -7 -13 4 0 8 4 12 9 9 14 -9 8 10 -11 33 -22 27
-111 84 -173 111 l-48 21 -2 -52z m98 -14 c-5 -5 -56 22 -56 30 0 5 13 0 30
-9 16 -10 28 -19 26 -21z m51 -21 l23 -17 -39 -3 c-27 -2 -40 2 -45 13 -6 17
9 21 19 5 3 -5 14 -10 23 -10 15 1 15 2 -2 15 -11 8 -16 15 -10 15 5 0 19 -8
31 -18z m-87 -6 c0 -3 -4 -8 -10 -11 -5 -3 -10 -1 -10 4 0 6 5 11 10 11 6 0
10 -2 10 -4z m-31 -34 c0 -14 -2 -13 -9 3 -5 12 -9 14 -9 6 -1 -8 -4 -12 -7
-8 -9 9 6 28 17 22 5 -4 9 -14 8 -23z m231 -137 c0 -5 -5 -3 -10 5 -5 8 -10
20 -10 25 0 6 5 3 10 -5 5 -8 10 -19 10 -25z m-26 9 c3 -8 2 -12 -4 -9 -6 3
-10 10 -10 16 0 14 7 11 14 -7z m-195 -67 c1 -5 -3 -5 -9 -2 -5 3 -10 16 -9
28 0 21 1 21 9 2 5 -11 9 -24 9 -28z m-42 11 c-3 -8 -6 -5 -6 6 -1 11 2 17 5
13 3 -3 4 -12 1 -19z m43 -73 c0 -4 -9 4 -20 18 -11 14 -20 28 -20 32 0 4 9
-4 20 -18 11 -14 20 -28 20 -32z m49 19 c2 -2 2 -7 -2 -10 -3 -3 -16 2 -29 11
l-23 17 25 -7 c14 -4 27 -9 29 -11z m31 -18 c0 -3 -4 -8 -10 -11 -5 -3 -10 -1
-10 4 0 6 5 11 10 11 6 0 10 -2 10 -4z m-15 -36 c16 -17 16 -20 3 -15 -9 4
-19 13 -22 21 -7 19 -2 18 19 -6z m80 -48 c-3 -3 -11 0 -18 7 -9 10 -8 11 6 5
10 -3 15 -9 12 -12z" />
        <path d="M4041 3461 c-6 -39 -11 -94 -11 -124 0 -61 24 -132 42 -121 7 5 8 3
3 -5 -15 -26 131 -146 163 -134 10 4 13 2 8 -5 -4 -7 -3 -12 2 -12 9 0 27 85
26 122 0 9 3 15 7 13 8 -6 19 46 19 92 0 52 -26 96 -76 133 -25 18 -47 30 -49
28 -3 -2 15 -19 40 -36 26 -18 45 -39 44 -49 0 -14 -2 -14 -9 4 -13 32 -45 46
-72 33 -21 -10 -21 -10 -5 3 15 13 15 16 2 27 -8 7 -13 16 -10 20 3 4 -10 17
-28 28 -19 11 -45 27 -59 36 l-25 16 -12 -69z m48 26 c8 -10 7 -14 -2 -14 -8
0 -14 6 -14 14 0 7 1 13 2 13 2 0 8 -6 14 -13z m-32 -39 c-3 -7 -5 -2 -5 12 0
14 2 19 5 13 2 -7 2 -19 0 -25z m10 -40 c-3 -8 -6 -5 -6 6 -1 11 2 17 5 13 3
-3 4 -12 1 -19z m6 -38 c-3 -12 -8 -19 -11 -16 -5 6 5 36 12 36 2 0 2 -9 -1
-20z m-26 -42 c-3 -7 -5 -2 -5 12 0 14 2 19 5 13 2 -7 2 -19 0 -25z m20 -35
c-3 -10 -5 -4 -5 12 0 17 2 24 5 18 2 -7 2 -21 0 -30z m206 -3 c-3 -12 -8 -19
-11 -16 -5 6 5 36 12 36 2 0 2 -9 -1 -20z m14 -32 c-3 -8 -6 -5 -6 6 -1 11 2
17 5 13 3 -3 4 -12 1 -19z m-22 -54 c-8 -16 -15 -23 -15 -16 0 13 22 53 27 48
2 -2 -3 -16 -12 -32z m-115 -20 c0 -8 -5 -12 -10 -9 -6 4 -8 11 -5 16 9 14 15
11 15 -7z m27 -50 c7 3 12 0 10 -7 -1 -7 5 -12 13 -12 8 0 14 6 12 13 -1 8 2
11 8 7 6 -4 19 -1 28 6 16 13 16 12 1 -6 -9 -11 -14 -27 -12 -35 4 -12 3 -13
-5 -1 -5 7 -15 11 -21 7 -11 -7 -91 41 -91 56 0 5 10 -1 22 -12 12 -11 28 -18
35 -16z" />
        <path d="M3028 3355 c-3 -3 -54 -6 -114 -8 -104 -3 -113 -5 -168 -37 -32 -18
-66 -46 -75 -61 -9 -16 -19 -29 -23 -29 -7 0 -71 -160 -66 -166 2 -2 60 -4
128 -6 138 -3 180 8 187 50 2 13 -1 21 -6 17 -8 -5 -9 13 -2 58 0 4 6 7 12 7
8 0 8 -4 0 -14 -12 -15 -5 -46 11 -46 6 0 5 -6 -2 -15 -7 -8 -8 -15 -3 -15 11
0 50 75 87 165 17 43 21 62 13 67 -8 5 -6 8 4 8 9 0 19 7 23 15 5 15 3 19 -6
10z m-35 -35 c3 -11 0 -23 -5 -27 -7 -3 -8 -1 -4 5 4 7 0 12 -11 13 -12 0 -14
2 -4 6 11 5 11 7 0 14 -11 7 -11 9 2 9 9 0 19 -9 22 -20z m-136 -6 c-3 -3 -12
-4 -19 -1 -8 3 -5 6 6 6 11 1 17 -2 13 -5z m-146 -68 c-9 -11 -9 -15 1 -19 7
-3 3 -4 -9 -4 -15 1 -19 5 -13 13 6 6 6 15 2 19 -4 5 -1 5 6 1 7 -4 12 -2 12
5 0 7 3 9 6 6 4 -4 2 -13 -5 -21z m207 -47 c3 -12 2 -12 -6 0 -6 8 -15 10 -22
6 -9 -5 -11 -4 -6 4 10 15 28 10 34 -10z m-284 -63 c-3 -15 -8 -25 -11 -23 -2
3 -1 17 3 31 3 15 8 25 11 23 2 -3 1 -17 -3 -31z m296 4 c0 -5 -2 -10 -4 -10
-3 0 -8 5 -11 10 -3 6 -1 10 4 10 6 0 11 -4 11 -10z m-319 -67 c-12 -20 -14
-14 -5 12 4 9 9 14 11 11 3 -2 0 -13 -6 -23z" />
        <path d="M4640 3291 c-87 -18 -161 -84 -216 -192 l-33 -67 47 -5 c26 -2 74
-10 107 -17 134 -27 185 3 271 161 34 63 62 114 61 115 -9 6 -210 10 -237 5z
m199 -15 c-2 -2 -17 -6 -34 -10 -22 -5 -26 -4 -15 4 14 9 59 15 49 6z m11 -26
c0 -5 -2 -10 -4 -10 -3 0 -8 5 -11 10 -3 6 -1 10 4 10 6 0 11 -4 11 -10z
m-285 -10 c-3 -5 -12 -10 -18 -10 -7 0 -6 4 3 10 19 12 23 12 15 0z m60 0
c-11 -5 -27 -9 -35 -9 -9 0 -8 4 5 9 11 5 27 9 35 9 9 0 8 -4 -5 -9z m122 4
c-3 -3 -12 -4 -19 -1 -8 3 -5 6 6 6 11 1 17 -2 13 -5z m74 -27 c-10 -9 -11 -8
-5 6 3 10 9 15 12 12 3 -3 0 -11 -7 -18z m-84 7 c-3 -3 -12 -4 -19 -1 -8 3 -5
6 6 6 11 1 17 -2 13 -5z m-217 -54 c0 -11 -2 -20 -4 -20 -2 0 -6 9 -9 20 -3
11 -1 20 4 20 5 0 9 -9 9 -20z m-40 -101 c0 -3 -7 -6 -15 -6 -8 0 -12 4 -9 8
3 5 0 19 -6 31 -10 21 -10 21 9 -2 11 -14 21 -28 21 -31z m241 -22 c-10 -9
-11 -8 -5 6 3 10 9 15 12 12 3 -3 0 -11 -7 -18z m-114 7 c-3 -3 -12 -4 -19 -1
-8 3 -5 6 6 6 11 1 17 -2 13 -5z m72 -8 l24 -14 -22 -7 c-12 -4 -25 -4 -28 -1
-4 3 2 6 13 6 16 0 17 2 4 10 -8 5 -24 7 -35 4 -16 -4 -17 -3 -5 5 19 13 20
13 49 -3z m-186 -3 c-7 -2 -21 -2 -30 0 -10 3 -4 5 12 5 17 0 24 -2 18 -5z
m120 -20 c-7 -2 -19 -2 -25 0 -7 3 -2 5 12 5 14 0 19 -2 13 -5z" />
        <path d="M5055 3064 c-38 -18 -77 -33 -85 -34 -23 0 -81 -38 -117 -76 -45 -47
-54 -89 -44 -224 4 -63 7 -125 6 -137 -1 -13 -1 -23 0 -23 1 0 28 15 58 34 44
26 53 36 44 45 -9 10 -8 11 6 6 30 -12 64 3 121 56 75 68 98 130 98 255 -1 49
-5 99 -9 110 -8 20 -10 20 -78 -12z m-29 -39 c-11 -8 -27 -15 -35 -14 -9 0 -2
7 14 14 39 18 45 18 21 0z m-69 -18 c0 -7 -9 -14 -20 -14 -19 -2 -19 -2 -1 12
11 8 19 15 20 15 0 0 1 -6 1 -13z m170 -69 c-3 -8 -6 -5 -6 6 -1 11 2 17 5 13
3 -3 4 -12 1 -19z m-254 -5 c-3 -7 -9 -10 -14 -7 -14 8 -11 21 5 21 8 0 12 -6
9 -14z m-14 -67 l-2 -31 -4 30 c-3 17 -10 37 -16 45 -10 13 -10 13 6 1 10 -8
16 -25 16 -45z m18 22 c-3 -8 -6 -5 -6 6 -1 11 2 17 5 13 3 -3 4 -12 1 -19z
m-37 -12 c0 -3 -4 -8 -10 -11 -5 -3 -10 -1 -10 4 0 6 5 11 10 11 6 0 10 -2 10
-4z m37 -68 c-3 -8 -6 -5 -6 6 -1 11 2 17 5 13 3 -3 4 -12 1 -19z m-20 -25
c-3 -10 -5 -4 -5 12 0 17 2 24 5 18 2 -7 2 -21 0 -30z m226 20 c-5 -12 -3 -14
7 -8 9 6 11 4 5 -4 -5 -9 -11 -9 -17 -3 -6 6 -7 15 -4 21 11 17 16 13 9 -6z
m-27 -42 c-2 -38 -24 -63 -49 -55 -14 4 -17 3 -12 -6 6 -9 3 -9 -14 -1 -29 16
-27 19 13 15 35 -2 63 16 52 35 -5 8 2 41 9 41 1 0 2 -13 1 -29z m-66 -86 c0
-2 -6 -5 -13 -8 -8 -3 -14 1 -14 8 0 7 6 11 14 8 7 -3 13 -6 13 -8z m-113 -51
c-6 -6 -47 9 -47 17 0 5 11 3 25 -3 14 -6 24 -13 22 -14z m-27 -14 c0 -5 -5
-10 -11 -10 -5 0 -7 5 -4 10 3 6 8 10 11 10 2 0 4 -4 4 -10z" />
        <path d="M2785 2924 c-130 -86 -144 -111 -121 -207 8 -34 18 -77 21 -94 l7
-33 53 38 c92 65 130 148 113 246 -6 28 -14 52 -18 54 -5 2 -6 10 -3 18 7 18
7 18 -52 -22z m40 -14 c3 -6 -1 -7 -9 -4 -18 7 -21 14 -7 14 6 0 13 -4 16 -10z
m-80 -40 c-3 -5 -12 -10 -18 -10 -7 0 -6 4 3 10 19 12 23 12 15 0z m35 -15
c-7 -8 -17 -15 -23 -15 -6 0 -2 8 9 19 22 21 33 19 14 -4z m21 -12 c-12 -20
-14 -14 -5 12 4 9 9 14 11 11 3 -2 0 -13 -6 -23z m36 5 c-3 -8 -6 -5 -6 6 -1
11 2 17 5 13 3 -3 4 -12 1 -19z m-135 -11 c-7 -8 -8 -18 -4 -22 4 -5 1 -5 -5
-1 -8 4 -13 2 -13 -5 0 -7 -3 -10 -6 -6 -6 6 28 58 35 51 2 -2 -1 -10 -7 -17z
m31 -4 c-7 -2 -13 -14 -14 -26 0 -12 -3 -16 -6 -9 -7 18 4 42 19 41 10 0 10
-2 1 -6z m98 -64 c-5 -13 -10 -19 -10 -12 -1 15 10 45 15 40 3 -2 0 -15 -5
-28z m-10 -33 c5 3 9 0 9 -6 0 -15 -23 -7 -26 8 -1 7 0 8 3 2 2 -5 9 -8 14 -4z
m-114 -38 c-3 -8 -6 -5 -6 6 -1 11 2 17 5 13 3 -3 4 -12 1 -19z m22 -59 c-15
-9 -32 -2 -24 11 3 5 13 6 21 3 12 -4 13 -8 3 -14z" />
        <path d="M4520 2834 c-19 -9 -71 -29 -115 -45 -132 -48 -155 -86 -158 -262
l-2 -124 30 7 c121 29 218 99 255 183 10 23 21 76 25 117 3 41 8 90 11 108 6
36 3 37 -46 16z m30 -25 c0 -5 -4 -9 -8 -9 -5 0 -9 7 -9 15 0 8 4 12 9 9 4 -3
8 -9 8 -15z m-90 -23 c0 -2 -13 -9 -30 -15 -35 -12 -41 -5 -7 9 25 10 37 12
37 6z m-146 -116 c-5 -5 -10 3 -11 18 -1 22 0 24 9 8 6 -10 6 -22 2 -26z m206
-27 c-11 -17 -11 -17 -6 0 3 10 7 28 7 40 2 22 2 22 6 0 2 -12 -1 -30 -7 -40z
m-23 15 c-3 -7 -5 -2 -5 12 0 14 2 19 5 13 2 -7 2 -19 0 -25z m-210 -95 c-2
-16 -4 -3 -4 27 0 30 2 43 4 28 2 -16 2 -40 0 -55z m20 0 c-3 -10 -5 -2 -5 17
0 19 2 27 5 18 2 -10 2 -26 0 -35z m196 10 c-3 -7 -6 -13 -8 -13 -2 0 -5 6 -8
13 -3 8 1 14 8 14 7 0 11 -6 8 -14z m-63 -73 c0 -5 -2 -10 -4 -10 -3 0 -8 5
-11 10 -3 6 -1 10 4 10 6 0 11 -4 11 -10z m-95 -20 c-3 -5 -12 -10 -18 -10 -7
0 -6 4 3 10 19 12 23 12 15 0z m0 -30 c3 -5 2 -10 -4 -10 -5 0 -13 5 -16 10
-3 6 -2 10 4 10 5 0 13 -4 16 -10z" />
        <path d="M3987 2310 c3 -11 13 -20 22 -20 14 0 14 2 1 10 -15 10 -8 10 85 -6
40 -7 40 -7 13 -16 -16 -5 -28 -14 -28 -20 0 -7 -4 -7 -12 -1 -7 6 -25 13 -40
17 -22 5 -28 3 -28 -9 0 -9 3 -14 8 -12 4 3 7 -10 8 -28 1 -79 91 -155 201
-169 49 -6 51 -5 46 15 -4 15 -8 17 -14 8 -4 -7 -5 5 -2 28 7 55 -22 157 -43
149 -8 -3 -13 -2 -10 3 11 17 -22 31 -114 51 -52 11 -95 20 -96 20 -1 0 0 -9
3 -20z m193 -48 c0 -12 -3 -12 -15 -2 -8 7 -15 13 -15 15 0 1 7 2 15 2 8 0 15
-7 15 -15z m1 -63 l-10 -24 0 26 c-1 14 2 29 6 33 12 12 14 -9 4 -35z m-124
-8 c-3 -11 2 -30 10 -43 l15 -23 -20 22 c-18 20 -21 63 -5 63 3 0 3 -9 0 -19z
m147 3 c3 -8 2 -12 -4 -9 -6 3 -10 10 -10 16 0 14 7 11 14 -7z" />
        <path d="M4044 2280 c16 -5 36 -6 43 -1 9 5 -2 8 -29 8 -39 1 -41 1 -14 -7z" />
        <path d="M4959 2096 c-2 -2 -40 -11 -84 -20 -142 -29 -133 -16 -74 -101 29
-41 57 -71 62 -68 6 3 7 2 4 -4 -3 -5 4 -21 16 -35 18 -21 29 -25 62 -22 28 2
34 1 20 -5 -11 -5 -26 -6 -32 -4 -7 3 -13 2 -13 -1 0 -11 82 -47 96 -42 8 3
13 2 10 -3 -3 -4 15 -11 41 -15 48 -6 138 5 212 27 l43 13 -33 17 c-19 9 -29
17 -23 17 14 0 -48 120 -89 173 -38 49 -97 77 -162 77 -29 0 -54 -2 -56 -4z
m-2 -22 c-3 -3 -12 -4 -19 -1 -8 3 -5 6 6 6 11 1 17 -2 13 -5z m95 -6 c-9 -9
-15 -9 -24 0 -9 9 -7 12 12 12 19 0 21 -3 12 -12z m61 -5 c3 -5 -8 -8 -25 -9
-20 -1 -25 2 -16 7 16 11 35 11 41 2z m-208 -13 c27 -7 27 -8 5 -8 -14 0 -36
4 -50 8 -20 6 -21 8 -5 8 11 0 34 -4 50 -8z m190 -20 c-27 -12 -43 -12 -25 0
8 5 22 9 30 9 10 0 8 -3 -5 -9z m-168 -6 c-3 -3 -12 -4 -19 -1 -8 3 -5 6 6 6
11 1 17 -2 13 -5z m213 -14 c6 -11 7 -20 2 -20 -6 0 -12 9 -15 20 -3 11 -3 20
-1 20 2 0 8 -9 14 -20z m-330 -2 c0 -4 -4 -8 -9 -8 -6 0 -12 4 -15 8 -3 5 1 9
9 9 8 0 15 -4 15 -9z m380 -32 c0 -5 -7 -3 -15 4 -8 7 -15 20 -15 28 0 13 3
12 15 -4 8 -10 15 -23 15 -28z m-323 12 c-3 -8 -6 -5 -6 6 -1 11 2 17 5 13 3
-3 4 -12 1 -19z m298 -28 c3 -5 1 -10 -4 -10 -6 0 -11 5 -11 10 0 6 2 10 4 10
3 0 8 -4 11 -10z m-311 -26 c3 -8 2 -12 -4 -9 -6 3 -10 10 -10 16 0 14 7 11
14 -7z m369 -19 c4 -8 2 -17 -3 -20 -6 -4 -10 3 -10 14 0 25 6 27 13 6z m32
-56 c-7 -11 -35 -12 -35 -1 0 4 9 8 20 9 11 1 18 -2 15 -8z m-227 -8 c11 -6
10 -10 -4 -15 -9 -3 -19 -4 -22 -1 -3 3 1 5 9 5 11 0 11 2 -1 10 -8 5 -10 10
-5 10 6 0 16 -4 23 -9z m215 -18 c-7 -2 -21 -2 -30 0 -10 3 -4 5 12 5 17 0 24
-2 18 -5z m-169 -11 c2 -4 -7 -9 -20 -10 -15 -1 -22 2 -19 8 7 12 32 13 39 2z
m213 2 c-3 -3 -12 -4 -19 -1 -8 3 -5 6 6 6 11 1 17 -2 13 -5z m-82 -14 c4 -6
-7 -10 -27 -9 -27 0 -30 2 -13 9 27 12 33 12 40 0z" />
        <path d="M2127 1853 c-2 -4 -4 -22 -2 -40 1 -18 -2 -30 -7 -27 -5 3 -6 15 -3
27 6 21 5 20 -15 -3 -11 -14 -32 -44 -46 -68 -37 -61 -32 -144 15 -225 30 -53
34 -57 47 -40 17 23 18 36 2 27 -8 -4 -10 -3 -5 2 5 5 14 9 20 9 7 1 11 6 10
13 -2 7 0 11 5 11 19 -3 33 2 28 10 -3 5 1 12 10 15 9 4 14 13 10 21 -3 8 0
14 6 12 7 -1 13 5 13 13 1 8 5 23 10 34 5 11 4 26 -3 37 -7 10 -12 26 -12 34
0 9 -15 30 -32 47 -18 18 -24 25 -14 17 17 -12 17 -9 -4 31 -27 54 -27 54 -33
43z m-56 -156 c-10 -9 -11 -8 -5 6 3 10 9 15 12 12 3 -3 0 -11 -7 -18z m6 -49
c-3 -8 -6 -5 -6 6 -1 11 2 17 5 13 3 -3 4 -12 1 -19z m128 -38 c3 -6 -1 -7 -9
-4 -18 7 -21 14 -7 14 6 0 13 -4 16 -10z m-125 -45 c0 -5 -5 -3 -10 5 -5 8
-10 20 -10 25 0 6 5 3 10 -5 5 -8 10 -19 10 -25z m91 12 c-10 -9 -11 -8 -5 6
3 10 9 15 12 12 3 -3 0 -11 -7 -18z m-76 -45 c12 -8 15 -53 3 -46 -4 3 -8 14
-8 24 0 10 -6 21 -12 23 -7 3 -8 6 -3 6 6 0 15 -3 20 -7z" />
        <path d="M1891 1824 c-134 -36 -277 -115 -329 -182 -37 -48 -70 -106 -92 -162
-10 -25 -26 -62 -35 -84 l-16 -38 58 7 c108 12 207 36 257 62 57 29 160 123
184 168 26 49 72 165 81 206 9 39 9 39 -23 38 -17 0 -55 -7 -85 -15z" />
    </g>
</svg>
